<svg aria-hidden="true" style="position:absolute;width:0;height:0" xmlns="http://www.w3.org/2000/svg"
     overflow="hidden">
    <defs>
        <symbol id="arrow-left" viewBox="0 0 32 32">
            <path stroke-width="2.6667"
                  stroke-linecap="round" stroke-linejoin="round" d="M25.333 16H6.666M16 25.334l-9.333-9.333L16 6.668"/>
        </symbol>

        <symbol id="arrow-right" viewBox="0 0 32 32">
            <path stroke-width="2.6667" stroke-linecap="round"
                  stroke-linejoin="round" d="M6.667 16h18.667M16 25.334l9.333-9.333L16 6.668"/>
        </symbol>

        <symbol id="close" viewBox="0 0 32 32">
            <path d="M26.667 7.303l-1.97-1.97-7.808 7.808-7.808-7.808-1.97 1.97 7.808 7.808-7.808 7.808 1.97 1.97 7.808-7.808 7.808 7.808 1.97-1.97-7.808-7.808 7.808-7.808z"/>
        </symbol>

        <symbol id="favorite" viewBox="0 0 32 32">
            <path fill="var(--color1, #ff6b08)"
                  d="M16 30.583l-2.24-2.24C5.44 20.983 0 16.023 0 9.943c0-4.96 3.84-8.8 8.8-8.8 2.72 0 5.44 1.28 7.2 3.36 1.76-2.08 4.48-3.36 7.2-3.36 4.96 0 8.8 3.84 8.8 8.8 0 6.08-5.44 11.04-13.76 18.4L16 30.583z"/>
        </symbol>

        <symbol id="film" viewBox="0 0 32 32">
            <path fill="none" stroke="var(--color2, #818181)" stroke-width="2.6667" stroke-linecap="round"
                  stroke-linejoin="round"
                  d="M26.427 2.667H5.574c-1.605 0-2.907 1.301-2.907 2.907v20.853c0 1.605 1.301 2.907 2.907 2.907h20.853c1.605 0 2.907-1.301 2.907-2.907V5.574c0-1.605-1.301-2.907-2.907-2.907zm-17.094 0v26.667M22.667 2.667v26.667M2.667 16h26.667M2.667 9.333h6.667M2.667 22.667h6.667m13.333 0h6.667M22.667 9.333h6.667"/>
        </symbol>

        <symbol id="search" viewBox="0 0 32 32">
            <!--            <path fill="none" stroke="var(&#45;&#45;color2, #FFF)" stroke-width="2.6667"-->
            <path fill="none" stroke="#fff" stroke-width="4.6667"
                  stroke-linecap="round" stroke-linejoin="round"
                  d="M14.667 25.333c5.891 0 10.667-4.776 10.667-10.667S20.558 3.999 14.667 3.999 4 8.775 4 14.666s4.776 10.667 10.667 10.667zM28 28.001l-5.8-5.8"/>
        </symbol>
        <!--        <symbol id="icon-menu" viewBox="0 0 32 32">-->
        <!--            <path d="M2 6h28v6h-28zM2 14h28v6h-28zM2 22h28v6h-28z"></path>-->
        <!--        </symbol>-->
        <!--        <symbol id="icon-cross" viewBox="0 0 32 32">-->
        <!--            <path d="M31.708 25.708c-0-0-0-0-0-0l-9.708-9.708 9.708-9.708c0-0 0-0 0-0 0.105-0.105 0.18-0.227 0.229-0.357 0.133-0.356 0.057-0.771-0.229-1.057l-4.586-4.586c-0.286-0.286-0.702-0.361-1.057-0.229-0.13 0.048-0.252 0.124-0.357 0.228 0 0-0 0-0 0l-9.708 9.708-9.708-9.708c-0-0-0-0-0-0-0.105-0.104-0.227-0.18-0.357-0.228-0.356-0.133-0.771-0.057-1.057 0.229l-4.586 4.586c-0.286 0.286-0.361 0.702-0.229 1.057 0.049 0.13 0.124 0.252 0.229 0.357 0 0 0 0 0 0l9.708 9.708-9.708 9.708c-0 0-0 0-0 0-0.104 0.105-0.18 0.227-0.229 0.357-0.133 0.355-0.057 0.771 0.229 1.057l4.586 4.586c0.286 0.286 0.702 0.361 1.057 0.229 0.13-0.049 0.252-0.124 0.357-0.229 0-0 0-0 0-0l9.708-9.708 9.708 9.708c0 0 0 0 0 0 0.105 0.105 0.227 0.18 0.357 0.229 0.356 0.133 0.771 0.057 1.057-0.229l4.586-4.586c0.286-0.286 0.362-0.702 0.229-1.057-0.049-0.13-0.124-0.252-0.229-0.357z"/>-->
        <!--        </symbol>-->
        <!--        <symbol id="icon-mobile-menu" viewBox="0 0 32 32">-->
        <!--            <path d="M0 5.333v-5.333h48v5.333h-48zM0 18.667h48v-5.333h-48v5.333zM0 32h48v-5.333h-48v5.333z"/>-->
        <!--        </symbol>-->

        <symbol id="icon-cross" viewBox="0 0 32 32">
            <path d="M31.439 3.166l-3.166-3.166-12.553 12.553-12.553-12.553-3.166 3.166 12.553 12.553-12.553 12.553 3.166 3.166 12.553-12.553 12.553 12.553 3.166-3.166-12.553-12.553 12.553-12.553z"/>
        </symbol>
        <symbol id="icon-mobile-menu" viewBox="0 0 48 32">
            <path d="M0 5.333v-5.333h48v5.333h-48zM0 18.667h48v-5.333h-48v5.333zM0 32h48v-5.333h-48v5.333z"/>
        </symbol>
    </defs>
</svg>